<svg width="52" height="52" viewBox="0 0 52 52" fill="none" xmlns="http://www.w3.org/2000/svg">
<path fill-rule="evenodd" clip-rule="evenodd" d="M22.8333 27.6667C22.8333 27.3905 23.0571 27.1667 23.3333 27.1667L28.6666 27.1667C28.9427 27.1667 29.1666 27.3905 29.1666 27.6667C29.1666 27.9428 28.9427 28.1667 28.6666 28.1667L23.3333 28.1667C23.0571 28.1667 22.8333 27.9428 22.8333 27.6667Z" fill="white"/>
<path fill-rule="evenodd" clip-rule="evenodd" d="M22.1667 30.3333C22.1667 30.0572 22.3906 29.8333 22.6667 29.8333L23.3334 29.8333C23.6096 29.8333 23.8334 30.0572 23.8334 30.3333C23.8334 30.6095 23.6096 30.8333 23.3334 30.8333L22.6667 30.8333C22.3906 30.8333 22.1667 30.6095 22.1667 30.3333Z" fill="white"/>
<path fill-rule="evenodd" clip-rule="evenodd" d="M28.1667 30.3333C28.1667 30.0572 28.3906 29.8333 28.6667 29.8333L29.3334 29.8333C29.6096 29.8333 29.8334 30.0572 29.8334 30.3333C29.8334 30.6095 29.6096 30.8333 29.3334 30.8333L28.6667 30.8333C28.3906 30.8333 28.1667 30.6095 28.1667 30.3333Z" fill="white"/>
<path fill-rule="evenodd" clip-rule="evenodd" d="M22.8792 24.1667C22.5458 24.1667 22.2446 24.3653 22.1132 24.6717L20.5674 28.2787C20.5229 28.3825 20.5 28.4941 20.5 28.607V32.5H31.5V28.607C31.5 28.4941 31.4771 28.3825 31.4326 28.2787L29.8868 24.6717C29.7554 24.3653 29.4542 24.1667 29.1208 24.1667H22.8792ZM31.5 33.5H29.8333V34.5H31.5V33.5ZM28.8333 33.5V34.6C28.8333 35.097 29.2363 35.5 29.7333 35.5H31.6C32.0971 35.5 32.5 35.097 32.5 34.6V28.607C32.5 28.3587 32.4496 28.113 32.3518 27.8848L30.8059 24.2778C30.517 23.6037 29.8542 23.1667 29.1208 23.1667H22.8792C22.1458 23.1667 21.483 23.6037 21.1941 24.2778L19.6482 27.8848C19.5504 28.113 19.5 28.3587 19.5 28.607V34.6C19.5 35.097 19.9029 35.5 20.4 35.5H22.2667C22.7637 35.5 23.1667 35.097 23.1667 34.6V33.5H28.8333ZM22.1667 33.5H20.5V34.5H22.1667V33.5Z" fill="white"/>
<path fill-rule="evenodd" clip-rule="evenodd" d="M36.75 16C36.75 16.4142 36.4142 16.75 36 16.75L16 16.75C15.5858 16.75 15.25 16.4142 15.25 16C15.25 15.5858 15.5858 15.25 16 15.25L36 15.25C36.4142 15.25 36.75 15.5858 36.75 16Z" fill="white"/>
<path fill-rule="evenodd" clip-rule="evenodd" d="M17.5117 18.4414C17.8196 18.7185 17.8446 19.1927 17.5675 19.5006L17.5575 19.5117C17.2804 19.8196 16.8062 19.8446 16.4983 19.5675C16.1904 19.2904 16.1654 18.8161 16.4425 18.5083L16.4525 18.4972C16.7296 18.1893 17.2038 18.1643 17.5117 18.4414Z" fill="white"/>
<path fill-rule="evenodd" clip-rule="evenodd" d="M17.5117 27.4414C17.8196 27.7185 17.8446 28.1927 17.5675 28.5006L17.5575 28.5117C17.2804 28.8196 16.8062 28.8446 16.4983 28.5675C16.1904 28.2904 16.1654 27.8162 16.4425 27.5083L16.4525 27.4972C16.7296 27.1893 17.2038 27.1643 17.5117 27.4414Z" fill="white"/>
<path fill-rule="evenodd" clip-rule="evenodd" d="M20.5117 22.4414C20.8196 22.7185 20.8446 23.1927 20.5675 23.5006L20.5575 23.5117C20.2804 23.8196 19.8062 23.8446 19.4983 23.5675C19.1904 23.2904 19.1654 22.8161 19.4425 22.5083L19.4525 22.4972C19.7296 22.1893 20.2038 22.1643 20.5117 22.4414Z" fill="white"/>
<path fill-rule="evenodd" clip-rule="evenodd" d="M17.5117 32.4414C17.8196 32.7185 17.8446 33.1927 17.5675 33.5006L17.5575 33.5117C17.2804 33.8196 16.8062 33.8446 16.4983 33.5675C16.1904 33.2904 16.1654 32.8161 16.4425 32.5083L16.4525 32.4972C16.7296 32.1893 17.2038 32.1643 17.5117 32.4414Z" fill="white"/>
<path fill-rule="evenodd" clip-rule="evenodd" d="M23.5117 18.4414C23.8196 18.7185 23.8446 19.1927 23.5675 19.5006L23.5575 19.5117C23.2804 19.8196 22.8062 19.8446 22.4983 19.5675C22.1904 19.2904 22.1654 18.8161 22.4425 18.5083L22.4525 18.4972C22.7296 18.1893 23.2038 18.1643 23.5117 18.4414Z" fill="white"/>
<path fill-rule="evenodd" clip-rule="evenodd" d="M29.5117 18.4414C29.8196 18.7185 29.8446 19.1927 29.5675 19.5006L29.5575 19.5117C29.2804 19.8196 28.8062 19.8446 28.4983 19.5675C28.1904 19.2904 28.1654 18.8161 28.4425 18.5083L28.4525 18.4972C28.7296 18.1893 29.2038 18.1643 29.5117 18.4414Z" fill="white"/>
<path fill-rule="evenodd" clip-rule="evenodd" d="M32.5117 22.4414C32.8196 22.7185 32.8446 23.1927 32.5675 23.5006L32.5575 23.5117C32.2804 23.8196 31.8062 23.8446 31.4983 23.5675C31.1904 23.2904 31.1654 22.8161 31.4425 22.5083L31.4525 22.4972C31.7296 22.1893 32.2038 22.1643 32.5117 22.4414Z" fill="white"/>
<path fill-rule="evenodd" clip-rule="evenodd" d="M35.5117 32.4414C35.8196 32.7185 35.8446 33.1927 35.5675 33.5006L35.5575 33.5117C35.2804 33.8196 34.8062 33.8446 34.4983 33.5675C34.1904 33.2904 34.1654 32.8161 34.4425 32.5083L34.4525 32.4972C34.7296 32.1893 35.2038 32.1643 35.5117 32.4414Z" fill="white"/>
<path fill-rule="evenodd" clip-rule="evenodd" d="M35.5117 18.4414C35.8196 18.7185 35.8446 19.1927 35.5675 19.5006L35.5575 19.5117C35.2804 19.8196 34.8062 19.8446 34.4983 19.5675C34.1904 19.2904 34.1654 18.8161 34.4425 18.5083L34.4525 18.4972C34.7296 18.1893 35.2038 18.1643 35.5117 18.4414Z" fill="white"/>
<path fill-rule="evenodd" clip-rule="evenodd" d="M35.5117 27.4414C35.8196 27.7185 35.8446 28.1927 35.5675 28.5006L35.5575 28.5117C35.2804 28.8196 34.8062 28.8446 34.4983 28.5675C34.1904 28.2904 34.1654 27.8161 34.4425 27.5083L34.4525 27.4972C34.7296 27.1893 35.2038 27.1643 35.5117 27.4414Z" fill="white"/>
<circle cx="26" cy="26" r="25" stroke="#626262" stroke-width="2"/>
<path d="M26 1C30.9445 1 35.778 2.46623 39.8893 5.21326C44.0005 7.9603 47.2048 11.8648 49.097 16.4329C50.9892 21.0011 51.4843 26.0277 50.5196 30.8773C49.555 35.7268 47.174 40.1814 43.6777 43.6777C40.1814 47.174 35.7268 49.555 30.8773 50.5196C26.0277 51.4843 21.0011 50.9892 16.4329 49.097C11.8648 47.2048 7.96029 44.0005 5.21326 39.8893C2.46622 35.778 1 30.9445 1 26" stroke="#F2D76E" stroke-width="2"/>
</svg>
