<svg width="185" height="91" viewBox="0 0 185 91" fill="none" xmlns="http://www.w3.org/2000/svg">
<path fill-rule="evenodd" clip-rule="evenodd" d="M93.7686 45.2744V69.7119H105.833V62.4945L93.7686 45.2744Z" fill="#F2D76E"/>
<path fill-rule="evenodd" clip-rule="evenodd" d="M77.8598 53.5846C79.3092 52.7968 80.6375 51.8046 81.8039 50.6383C83.399 49.0457 84.6642 47.1543 85.527 45.0722C86.3897 42.9902 86.833 40.7585 86.8316 38.5049H86.8509C86.8551 36.2436 86.4131 34.0035 85.5502 31.9131C84.6873 29.8227 83.4203 27.9229 81.8219 26.3225C80.2235 24.7221 78.325 23.4525 76.2352 22.5865C74.1453 21.7204 71.905 21.2748 69.6426 21.2752H45.5201V69.7118H57.5846V55.6412H64.6375L80.9589 78.9408H45.5201C41.0988 78.9842 36.7127 78.1512 32.6154 76.49C28.5181 74.8288 24.7909 72.3724 21.6491 69.2627C18.5073 66.1529 16.0133 62.4516 14.3112 58.3726C12.6092 54.2937 11.7328 49.9179 11.7328 45.4984C11.7328 41.0788 12.6092 36.7031 14.3112 32.6241C16.0133 28.5451 18.5073 24.8438 21.6491 21.7341C24.7909 18.6244 28.5181 16.1679 32.6154 14.5067C36.7127 12.8455 41.0988 12.0126 45.5201 12.056H70.4972L62.0511 0H45.5201C33.4474 1.79817e-07 21.8692 4.79373 13.3325 13.3266C4.79585 21.8595 0 33.4326 0 45.5C0 57.5673 4.79585 69.1404 13.3325 77.6733C21.8692 86.2062 33.4474 91 45.5201 91H104.072L77.8598 53.5846ZM73.3062 42.1121H73.2836C72.8083 42.5878 72.2437 42.9651 71.6222 43.2223C71.0008 43.4795 70.3346 43.6116 69.662 43.611V43.6336H57.5846V33.3505H69.6426C71.0046 33.3514 72.3104 33.8928 73.2732 34.8557C74.2359 35.8186 74.7767 37.1243 74.7767 38.4856H74.8025C74.8037 39.1587 74.6722 39.8254 74.4154 40.4477C74.1587 41.07 73.7817 41.6355 73.3062 42.1121Z" fill="#F2D76E"/>
<path fill-rule="evenodd" clip-rule="evenodd" d="M171.667 13.3261C167.445 9.09618 162.43 5.7415 156.907 3.45463C151.385 1.16775 145.466 -0.00624961 139.488 2.50193e-05H73.3286L116.63 61.8078L127.424 46.3961V69.7119H139.488V21.2753H130.349L116.63 40.8743L96.4418 12.0592H139.488C148.305 12.1457 156.731 15.7072 162.935 21.9695C169.138 28.2318 172.619 36.6886 172.619 45.5016C172.619 54.3147 169.138 62.7715 162.935 69.0338C156.731 75.296 148.305 78.8575 139.488 78.944H106.916L115.363 91H139.501C148.502 90.9958 157.3 88.3242 164.783 83.3229C172.265 78.3216 178.097 71.2151 181.539 62.9019C184.982 54.5886 185.881 45.4417 184.124 36.6175C182.367 27.7934 178.032 19.688 171.667 13.3261Z" fill="#F2D76E"/>
</svg>
