<svg width="62" height="62" viewBox="0 0 62 62" fill="none" xmlns="http://www.w3.org/2000/svg">
<circle cx="31" cy="31" r="31" fill="#F2D76E"/>
<path fill-rule="evenodd" clip-rule="evenodd" d="M40.2084 18.7301L39.4773 20.2803C39.3265 20.6001 39.0265 20.8239 38.677 20.8774L36.9439 21.1425L38.229 22.4525C38.4661 22.6942 38.5738 23.0343 38.5191 23.3684L38.2262 25.1553L39.6961 24.3463C40.0151 24.1707 40.4018 24.1707 40.7207 24.3463L42.1906 25.1553L41.8978 23.3684C41.843 23.0343 41.9507 22.6942 42.1878 22.4525L43.4729 21.1425L41.7398 20.8774C41.3903 20.8239 41.0903 20.6001 40.9395 20.2803L40.2084 18.7301ZM38.8433 16.643C39.3917 15.4801 41.0251 15.4801 41.5736 16.643L42.6202 18.8623L44.9414 19.2174C46.2317 19.4148 46.6162 20.9727 45.7885 21.8164L44.0819 23.5562L44.4866 26.0256C44.6746 27.1728 43.4775 28.2892 42.2717 27.6255L40.2084 26.4899L38.1451 27.6255C36.9394 28.2892 35.7423 27.1728 35.9303 26.0256L36.3349 23.5562L34.6283 21.8164C33.8007 20.9727 34.1851 19.4148 35.4754 19.2174L37.7966 18.8623L38.8433 16.643Z" fill="#101010"/>
<path fill-rule="evenodd" clip-rule="evenodd" d="M30.9999 17.8958C23.7627 17.8958 17.8958 23.7627 17.8958 31C17.8958 33.3886 18.5339 35.6249 19.6482 37.5513C19.7752 37.7708 19.8195 38.0285 19.773 38.2778L18.8696 43.1303L23.7221 42.2269C23.9714 42.1804 24.2291 42.2247 24.4486 42.3517C26.375 43.466 28.6113 44.1041 30.9999 44.1041C38.2372 44.1041 44.1041 38.2372 44.1041 31C44.1041 30.557 44.0821 30.1194 44.0393 29.6883C43.9814 29.1044 44.4077 28.584 44.9917 28.526C45.5756 28.468 46.096 28.8944 46.1539 29.4783C46.2037 29.9791 46.2291 30.4867 46.2291 31C46.2291 39.4108 39.4108 46.2291 30.9999 46.2291C28.3701 46.2291 25.8933 45.5617 23.7326 44.3864L17.7361 45.5029C17.3917 45.567 17.0379 45.4573 16.7903 45.2096C16.5426 44.962 16.4329 44.6082 16.497 44.2638L17.6135 38.2673C16.4382 36.1066 15.7708 33.6298 15.7708 31C15.7708 22.5891 22.5891 15.7708 30.9999 15.7708C31.5132 15.7708 32.0208 15.7962 32.5216 15.846C33.1055 15.9039 33.5319 16.4243 33.4739 17.0082C33.4159 17.5922 32.8955 18.0185 32.3116 17.9606C31.8805 17.9178 31.4429 17.8958 30.9999 17.8958Z" fill="#101010"/>
</svg>
