<svg width="25" height="24" viewBox="0 0 25 24" fill="none" xmlns="http://www.w3.org/2000/svg">
<path fill-rule="evenodd" clip-rule="evenodd" d="M20.6299 8.26133C21.0378 8.33306 21.3104 8.72193 21.2387 9.12988L19.2437 20.4761C19.2437 20.4762 19.2437 20.4762 19.2437 20.4762C19.0125 21.7911 17.8703 22.75 16.5353 22.75H8.46474C7.12967 22.75 5.98748 21.7911 5.75629 20.4762L3.76133 9.12988C3.68961 8.72192 3.96217 8.33306 4.37013 8.26133C4.77808 8.18961 5.16694 8.46217 5.23867 8.87013L7.23363 20.2164C7.33872 20.8141 7.85792 21.25 8.46474 21.25H16.5353C17.1421 21.25 17.6613 20.8141 17.7663 20.2165L17.7663 20.2164L19.7613 8.87012C19.8331 8.46217 20.2219 8.1896 20.6299 8.26133Z" fill="#CE2A18"/>
<path fill-rule="evenodd" clip-rule="evenodd" d="M11.125 2.75C10.4346 2.75 9.875 3.30964 9.875 4V5.25H15.125V4C15.125 3.30964 14.5654 2.75 13.875 2.75H11.125ZM8.375 5.25V4C8.375 2.48122 9.60622 1.25 11.125 1.25H13.875C15.3938 1.25 16.625 2.48122 16.625 4V5.25H21.5C21.9142 5.25 22.25 5.58579 22.25 6C22.25 6.41421 21.9142 6.75 21.5 6.75H3.5C3.08579 6.75 2.75 6.41421 2.75 6C2.75 5.58579 3.08579 5.25 3.5 5.25H8.375Z" fill="#CE2A18"/>
</svg>
