<svg width="100" height="86" viewBox="0 0 100 86" fill="none" xmlns="http://www.w3.org/2000/svg">
<path d="M72.8199 41.659C72.1497 41.6446 71.4806 41.7224 70.8316 41.8904C69.7218 42.1678 68.6583 42.4916 67.5486 42.769C67.3634 42.3527 67.1784 41.9365 66.9934 41.5204H61.6295C62.6007 43.8788 63.5253 46.2371 64.4965 48.5952C64.6675 48.9439 64.777 49.3194 64.8202 49.7053C64.8693 49.94 64.8694 50.1823 64.8204 50.417C64.7713 50.6517 64.6743 50.8738 64.5353 51.0692C64.3963 51.2646 64.2184 51.4291 64.0128 51.5525C63.8072 51.6758 63.5783 51.7553 63.3404 51.7859C62.931 51.8803 62.512 51.9269 62.0918 51.9248H13.2146C10.9485 51.9248 10.1162 50.7225 10.9485 48.6415C12.8446 43.9711 14.7404 39.3469 16.6827 34.7227C17.0363 33.7293 17.6981 32.875 18.5716 32.2844C19.4451 31.6938 20.4844 31.3978 21.538 31.4397H47.2484V28.249H19.9657C16.0815 28.249 13.122 30.2374 11.5959 33.8441C11.3648 34.4915 11.0873 35.139 10.8099 35.7864C9.88501 38.0985 8.91384 40.4106 7.94294 42.769C6.7869 42.4453 5.67714 42.1215 4.5671 41.8904C3.85835 41.7049 3.12048 41.6577 2.39388 41.7515C1.09897 41.9364 0.498077 43.0002 0.0817871 44.1099V47.8092C0.174362 47.9941 0.220367 48.1792 0.312942 48.3641C0.511442 49.0118 0.876397 49.5961 1.37136 50.0586C1.86632 50.5211 2.47397 50.8457 3.13362 50.9999C3.54992 51.0925 4.01222 51.0925 4.47481 51.1848C4.33595 51.5085 4.24366 51.7859 4.15108 52.0634C2.82244 55.2625 2.10107 58.6811 2.02386 62.1443C1.97758 68.5254 1.97758 74.9068 2.02386 81.2419C2.00258 81.7859 2.09483 82.3284 2.29475 82.8349C2.49466 83.3413 2.79786 83.8005 3.18502 84.1834C3.57219 84.5662 4.03483 84.8641 4.54349 85.0583C5.05215 85.2525 5.59567 85.3386 6.13944 85.3112C7.48035 85.3575 8.77526 85.3575 10.1162 85.3575H11.1336C11.678 85.3718 12.2196 85.2752 12.7254 85.0735C13.2312 84.8717 13.6907 84.5691 14.0757 84.184C14.4607 83.799 14.7633 83.3395 14.9651 82.8337C15.1668 82.3278 15.2633 81.7862 15.2489 81.2419V76.6177H60.196C60.2331 76.8625 60.2486 77.1102 60.2423 77.3577V81.1959C60.2886 83.6928 61.9532 85.3112 64.4502 85.3575H69.0744C71.8027 85.3112 73.4674 83.6928 73.4674 80.9645C73.5137 74.9068 73.5137 68.8954 73.4674 62.8378C73.4589 59.1578 72.7365 55.5144 71.3401 52.1097C71.2479 51.8322 71.1553 51.5085 71.0167 51.1388C71.2941 51.1388 71.5716 51.0925 71.8027 51.0925C72.7467 51.0085 73.6295 50.5893 74.2911 49.9107C74.9527 49.2321 75.3494 48.339 75.4094 47.3932C75.4557 46.422 75.4557 45.4971 75.4094 44.5722C75.4048 43.8551 75.1395 43.1641 74.6631 42.6281C74.1867 42.0921 73.5316 41.7477 72.8199 41.659ZM24.1275 67.0459C24.1275 68.3405 23.5264 68.9417 22.2315 68.9417C18.6711 68.988 15.0641 68.988 11.5034 68.9417C10.2087 68.9417 9.60757 68.3405 9.60757 67.0459V62.1903C9.65386 60.8957 10.2087 60.2945 11.5034 60.2945H22.1852C23.5264 60.2945 24.1275 60.8494 24.1275 62.1903C24.1738 63.8089 24.1738 65.4275 24.1275 67.0459ZM65.7451 66.9996C65.7451 68.3405 65.1439 68.9417 63.8027 68.9417C60.2886 68.988 56.7279 68.988 53.1672 68.9417C51.8263 68.9417 51.2251 68.3405 51.2251 66.9996C51.1788 65.4273 51.1788 63.8552 51.2251 62.2366C51.2251 60.8957 51.8263 60.2945 53.1672 60.2945H63.8027C65.1439 60.2945 65.7451 60.8957 65.7451 62.2366V66.9996Z" fill="#626262"/>
<path d="M95.6634 4.80445H92.4264V7.16282C92.4294 7.5443 92.3569 7.92261 92.213 8.27593C92.0692 8.62926 91.8568 8.9506 91.5881 9.22143C91.3194 9.49227 90.9998 9.70723 90.6476 9.85392C90.2955 10.0006 89.9178 10.0761 89.5363 10.0761C89.1548 10.0761 88.7771 10.0006 88.4249 9.85392C88.0727 9.70723 87.7531 9.49227 87.4844 9.22143C87.2158 8.9506 87.0034 8.62926 86.8595 8.27593C86.7156 7.92261 86.6431 7.5443 86.6462 7.16282V4.80445H84.8429V7.16282C84.8383 7.93403 84.5299 8.67233 83.9845 9.21766C83.4392 9.763 82.7009 10.0714 81.9297 10.0761C81.5467 10.0777 81.1671 10.0034 80.8129 9.85758C80.4588 9.71175 80.137 9.49722 79.8661 9.22638C79.5953 8.95554 79.3808 8.63375 79.2349 8.27957C79.0891 7.92539 79.0148 7.54584 79.0164 7.16282V4.80445H68.1495V7.16282C68.1525 7.5443 68.08 7.92261 67.9362 8.27593C67.7923 8.62926 67.5799 8.9506 67.3112 9.22143C67.0425 9.49227 66.7229 9.70723 66.3708 9.85392C66.0186 10.0006 65.6409 10.0761 65.2594 10.0761C64.8779 10.0761 64.5002 10.0006 64.148 9.85392C63.7958 9.70723 63.4762 9.49227 63.2075 9.22143C62.9389 8.9506 62.7265 8.62926 62.5826 8.27593C62.4387 7.92261 62.3662 7.5443 62.3693 7.16282V4.80445H60.5661V7.16282C60.5614 7.93403 60.253 8.67233 59.7077 9.21766C59.1623 9.763 58.424 10.0714 57.6528 10.0761C57.2698 10.0777 56.8902 10.0034 56.5361 9.85758C56.1819 9.71175 55.8601 9.49722 55.5893 9.22638C55.3184 8.95554 55.1039 8.63375 54.958 8.27957C54.8122 7.92539 54.738 7.54584 54.7396 7.16282V4.80445H51.5026C50.5848 4.81105 49.7065 5.17857 49.0575 5.82754C48.4085 6.47651 48.041 7.35481 48.0344 8.27258V37.2199C48.0338 37.6756 48.1231 38.1268 48.2972 38.5478C48.4713 38.9689 48.7267 39.3515 49.0489 39.6736C49.371 39.9958 49.7536 40.2512 50.1747 40.4253C50.5957 40.5994 51.0469 40.6887 51.5026 40.6881H84.5192C82.7599 39.6625 81.3316 38.154 80.4037 36.3413H53.1209V11.8793H94.045V21.5902C96.182 22.4943 97.9671 24.0685 99.1315 26.0755V8.27258C99.1322 7.81695 99.0429 7.36568 98.8688 6.94461C98.6948 6.52354 98.4393 6.14096 98.1172 5.81878C97.795 5.49661 97.4124 5.24117 96.9913 5.06711C96.5703 4.89306 96.119 4.8038 95.6634 4.80445Z" fill="#626262"/>
<path d="M91.7329 2.8161V7.16283C91.7257 7.73702 91.4944 8.28567 91.0884 8.69169C90.6823 9.09771 90.1336 9.32895 89.5594 9.33605C89.2744 9.33755 88.9921 9.28091 88.7298 9.16959C88.4675 9.05826 88.2306 8.8946 88.0337 8.6886C87.8138 8.50021 87.6378 8.26603 87.518 8.00247C87.3981 7.73891 87.3374 7.45234 87.3399 7.16283V2.8161C87.3498 2.23474 87.5882 1.68066 88.0036 1.27385C88.419 0.867043 88.978 0.640251 89.5594 0.642596C90.1328 0.652406 90.68 0.884547 91.0855 1.29005C91.491 1.69555 91.7231 2.24271 91.7329 2.8161Z" fill="#626262"/>
<path d="M84.1028 2.81608V7.16281C84.1028 7.73923 83.8739 8.29203 83.4663 8.69962C83.0587 9.1072 82.5059 9.33618 81.9295 9.33618C81.3531 9.33618 80.8003 9.1072 80.3927 8.69962C79.9851 8.29203 79.7561 7.73923 79.7561 7.16281V2.81608C79.7558 2.53056 79.8118 2.24778 79.9209 1.98393C80.03 1.72009 80.1901 1.48035 80.392 1.27846C80.5939 1.07657 80.8336 0.916481 81.0975 0.807367C81.3613 0.698253 81.6441 0.642255 81.9296 0.64258C82.5031 0.651595 83.0504 0.883854 83.4554 1.29001C83.6614 1.48702 83.825 1.72395 83.9363 1.98634C84.0477 2.24873 84.1043 2.53106 84.1028 2.81608Z" fill="#626262"/>
<path d="M67.4097 2.81608V7.16281C67.41 7.4483 67.3541 7.73104 67.245 7.99486C67.1359 8.25867 66.9758 8.49838 66.7739 8.70025C66.5721 8.90211 66.3323 9.06218 66.0685 9.17128C65.8047 9.28038 65.522 9.33636 65.2365 9.33604C64.6623 9.32893 64.1136 9.09769 63.7075 8.69167C63.3015 8.28565 63.0702 7.737 63.063 7.16281V2.81608C63.0702 2.24186 63.3015 1.69318 63.7075 1.28711C64.1136 0.881048 64.6623 0.649752 65.2365 0.642578C65.8217 0.660479 66.3805 0.890588 66.8086 1.29001C67.1936 1.70511 67.4082 2.24993 67.4097 2.81608Z" fill="#626262"/>
<path d="M59.826 2.81608V7.16281C59.8251 7.73866 59.5957 8.29061 59.1883 8.69749C58.7808 9.10436 58.2285 9.33289 57.6526 9.33289C57.0768 9.33289 56.5245 9.10436 56.117 8.69749C55.7095 8.29061 55.4801 7.73866 55.4792 7.16281V2.81608C55.4789 2.53056 55.5349 2.24778 55.644 1.98393C55.7532 1.72009 55.9132 1.48035 56.1151 1.27846C56.317 1.07657 56.5568 0.916482 56.8206 0.807368C57.0845 0.698254 57.3672 0.642256 57.6527 0.64258C58.2262 0.651593 58.7736 0.883851 59.1785 1.29001C59.3845 1.48702 59.5482 1.72395 59.6595 1.98634C59.7708 2.24873 59.8275 2.53106 59.826 2.81608Z" fill="#626262"/>
<path d="M64.5336 13.7012H58.011V16.9625H64.5336V13.7012Z" fill="#626262"/>
<path d="M74.3176 13.7012H67.7949V16.9625H74.3176V13.7012Z" fill="#626262"/>
<path d="M64.5336 20.2239H58.011V23.4852H64.5336V20.2239Z" fill="#626262"/>
<path d="M74.3176 20.2239H67.7949V23.4852H74.3176V20.2239Z" fill="#626262"/>
<path d="M64.5351 26.7474H58.0112V30.0093H64.5351V26.7474Z" fill="#626262"/>
<path d="M74.3176 26.7465H67.7949V30.0078H74.3176V26.7465Z" fill="#626262"/>
<path d="M99.4622 28.5207C98.8461 26.4641 97.5792 24.6631 95.8519 23.3882C94.1246 22.1133 92.0301 21.4334 89.8833 21.4508C87.93 21.4576 86.0213 22.0356 84.3923 23.1135C82.7633 24.1914 81.4851 25.7222 80.7151 27.5174C80.164 28.7512 79.884 30.0888 79.8941 31.44V31.8047C79.9217 33.0834 80.2169 34.3421 80.7607 35.4996C81.3341 36.8056 82.1802 37.9737 83.2423 38.9256C84.3044 39.8776 85.5579 40.5912 86.9186 41.0186H87.0097C88.5055 41.4887 90.0914 41.5979 91.6376 41.3374C93.1837 41.0768 94.6462 40.4539 95.9054 39.5195C97.1646 38.5852 98.1846 37.366 98.8821 35.9617C99.5796 34.5574 99.9346 33.0079 99.9182 31.44C99.9266 30.4486 99.7725 29.4624 99.4622 28.5207ZM94.1709 33.675C94.434 33.9427 94.5814 34.3031 94.5814 34.6785C94.5814 35.0539 94.434 35.4142 94.1709 35.682C93.8822 35.9409 93.5097 36.0866 93.1219 36.0924C92.9359 36.0933 92.7515 36.0575 92.5792 35.9871C92.407 35.9167 92.2504 35.813 92.1183 35.682L89.8833 33.447L87.6483 35.682C87.3805 35.945 87.0201 36.0924 86.6448 36.0924C86.2694 36.0924 85.9091 35.945 85.6413 35.682C85.3782 35.4142 85.2308 35.0539 85.2308 34.6785C85.2308 34.3031 85.3782 33.9427 85.6413 33.675L87.8763 31.44L85.6413 29.205C85.5095 29.0732 85.405 28.9168 85.3337 28.7446C85.2623 28.5724 85.2256 28.3879 85.2256 28.2015C85.2256 28.0151 85.2623 27.8306 85.3337 27.6584C85.405 27.4862 85.5095 27.3298 85.6413 27.198C85.7731 27.0662 85.9295 26.9617 86.1017 26.8904C86.2739 26.819 86.4584 26.7823 86.6448 26.7823C86.8312 26.7823 87.0157 26.819 87.1879 26.8904C87.3601 26.9617 87.5165 27.0662 87.6483 27.198L89.8833 29.433L92.1183 27.198C92.395 26.9344 92.7625 26.7874 93.1446 26.7874C93.5268 26.7874 93.8942 26.9344 94.1709 27.198C94.434 27.4657 94.5814 27.8261 94.5814 28.2015C94.5814 28.5769 94.434 28.9372 94.1709 29.205L91.9359 31.44L94.1709 33.675Z" fill="#626262"/>
</svg>
