<svg width="24" height="24" viewBox="0 0 24 24" fill="none" xmlns="http://www.w3.org/2000/svg">
<path fill-rule="evenodd" clip-rule="evenodd" d="M8.25 2C8.25 1.58579 8.58579 1.25 9 1.25L15 1.25C15.4142 1.25 15.75 1.58579 15.75 2C15.75 2.41421 15.4142 2.75 15 2.75L9 2.75C8.58579 2.75 8.25 2.41421 8.25 2Z" fill="#101010"/>
<path fill-rule="evenodd" clip-rule="evenodd" d="M12 9.25C12.4142 9.25 12.75 9.58579 12.75 10L12.75 14C12.75 14.4142 12.4142 14.75 12 14.75C11.5858 14.75 11.25 14.4142 11.25 14L11.25 10C11.25 9.58579 11.5858 9.25 12 9.25Z" fill="#101010"/>
<path fill-rule="evenodd" clip-rule="evenodd" d="M12 6.75C7.99594 6.75 4.75 9.99594 4.75 14C4.75 18.0041 7.99594 21.25 12 21.25C16.0041 21.25 19.25 18.0041 19.25 14C19.25 9.99594 16.0041 6.75 12 6.75ZM3.25 14C3.25 9.16751 7.16751 5.25 12 5.25C16.8325 5.25 20.75 9.16751 20.75 14C20.75 18.8325 16.8325 22.75 12 22.75C7.16751 22.75 3.25 18.8325 3.25 14Z" fill="#101010"/>
</svg>
