<svg width="52" height="52" viewBox="0 0 52 52" fill="none" xmlns="http://www.w3.org/2000/svg">
<path fill-rule="evenodd" clip-rule="evenodd" d="M22.25 15C22.25 14.5858 22.5858 14.25 23 14.25L29 14.25C29.4142 14.25 29.75 14.5858 29.75 15C29.75 15.4142 29.4142 15.75 29 15.75L23 15.75C22.5858 15.75 22.25 15.4142 22.25 15Z" fill="white"/>
<path fill-rule="evenodd" clip-rule="evenodd" d="M26 22.25C26.4142 22.25 26.75 22.5858 26.75 23L26.75 27C26.75 27.4142 26.4142 27.75 26 27.75C25.5858 27.75 25.25 27.4142 25.25 27L25.25 23C25.25 22.5858 25.5858 22.25 26 22.25Z" fill="white"/>
<path fill-rule="evenodd" clip-rule="evenodd" d="M26 19.75C21.9959 19.75 18.75 22.9959 18.75 27C18.75 31.0041 21.9959 34.25 26 34.25C30.0041 34.25 33.25 31.0041 33.25 27C33.25 22.9959 30.0041 19.75 26 19.75ZM17.25 27C17.25 22.1675 21.1675 18.25 26 18.25C30.8325 18.25 34.75 22.1675 34.75 27C34.75 31.8325 30.8325 35.75 26 35.75C21.1675 35.75 17.25 31.8325 17.25 27Z" fill="white"/>
<circle cx="26" cy="26" r="25" stroke="#626262" stroke-width="2"/>
</svg>
