<svg width="20" height="20" viewBox="0 0 20 20" fill="none" xmlns="http://www.w3.org/2000/svg">
<path d="M6.66667 12.1428L5.14764 10.6961C4.61269 10.1867 3.76107 10.2254 3.27461 10.7814V10.7814C2.83497 11.2838 2.84791 12.0377 3.30453 12.5248L8.15739 17.7012C8.53548 18.1045 9.06298 18.3333 9.6158 18.3333C10.5288 18.3333 11.9378 18.3333 13.3333 18.3333C15.3333 18.3333 16.6667 16.6666 16.6667 15C16.6667 15 16.6667 15 16.6667 15C16.6667 15 16.6667 9.28569 16.6667 7.85712" stroke="#626262" stroke-width="1.5" stroke-linecap="round" stroke-linejoin="round"/>
<path d="M14.1666 8.33329C14.1666 8.33329 14.1666 8.22903 14.1666 7.8571C14.1666 5.95234 16.6666 5.95234 16.6666 7.8571" stroke="#626262" stroke-width="1.5" stroke-linecap="round" stroke-linejoin="round"/>
<path d="M11.6666 8.33334C11.6666 8.33334 11.6666 7.64862 11.6666 6.90477C11.6666 5.00001 14.1666 5.00001 14.1666 6.90477C14.1666 7.09073 14.1666 7.67119 14.1666 7.85715C14.1666 8.22908 14.1666 8.33334 14.1666 8.33334" stroke="#626262" stroke-width="1.5" stroke-linecap="round" stroke-linejoin="round"/>
<path d="M9.16663 8.33338C9.16663 8.33338 9.16663 7.17986 9.16663 6.25004C9.16663 4.34528 11.6666 4.34528 11.6666 6.25004C11.6666 6.25004 11.6666 6.25004 11.6666 6.25004C11.6666 6.25004 11.6666 6.71884 11.6666 6.90481C11.6666 7.64866 11.6666 8.33338 11.6666 8.33338" stroke="#626262" stroke-width="1.5" stroke-linecap="round" stroke-linejoin="round"/>
<path d="M6.66663 12.1429V2.91669C6.66663 2.22633 7.22627 1.66669 7.91663 1.66669V1.66669C8.60698 1.66669 9.16663 2.22549 9.16663 2.91584C9.16663 3.90809 9.16663 5.28465 9.16663 6.25002C9.16663 7.17984 9.16663 8.33335 9.16663 8.33335" stroke="#626262" stroke-width="1.5" stroke-linecap="round" stroke-linejoin="round"/>
</svg>
