<svg width="101" height="100" viewBox="0 0 101 100" fill="none" xmlns="http://www.w3.org/2000/svg">
<g clip-path="url(#clip0_1049_6896)">
<path d="M60.6011 29.3083C51.7863 26.6774 42.4242 26.4781 33.5054 28.7315C24.5866 30.9848 16.4427 35.607 9.93534 42.109C8.92749 43.1149 7.56149 43.6796 6.13751 43.679C4.71353 43.6783 3.34806 43.1124 2.34115 42.1055C1.33424 41.0986 0.768259 39.7331 0.767579 38.3091C0.766899 36.8851 1.33157 35.5191 2.33753 34.5113C10.6932 26.1702 21.2625 20.3961 32.7959 17.8717C44.3292 15.3473 56.3442 16.1782 67.4203 20.2662C64.4159 22.6519 62.069 25.7638 60.6011 29.3083Z" fill="#626262"/>
<path d="M58.8883 37.9316C58.8799 42.5 60.2661 46.9621 62.8617 50.7215C56.6875 46.9413 49.4216 45.3467 42.2318 46.1939C35.0419 47.0412 28.3457 50.2811 23.2193 55.3929C22.2122 56.3981 20.8472 56.9624 19.4242 56.9617C18.0012 56.9611 16.6367 56.3955 15.6306 55.3893C14.6244 54.3831 14.0588 53.0186 14.0581 51.5957C14.0574 50.1727 14.6217 48.8077 15.6269 47.8006C21.1846 42.2516 28.156 38.331 35.7845 36.4643C43.4131 34.5977 51.4072 34.8563 58.8991 37.2121C58.8937 37.4483 58.8883 37.6899 58.8883 37.9316Z" fill="#626262"/>
<path d="M59.2907 70.2562C58.5854 70.2571 57.8869 70.1187 57.2353 69.8488C56.5837 69.5789 55.9919 69.183 55.4938 68.6836C52.9745 66.1698 49.5608 64.758 46.0019 64.758C42.4429 64.758 39.0293 66.1698 36.51 68.6836C36.0114 69.1823 35.4194 69.5778 34.7679 69.8476C34.1165 70.1175 33.4182 70.2564 32.7131 70.2564C32.0079 70.2564 31.3097 70.1175 30.6582 69.8476C30.0068 69.5778 29.4148 69.1823 28.9162 68.6836C28.4176 68.185 28.0221 67.5931 27.7522 66.9416C27.4824 66.2902 27.3435 65.5919 27.3435 64.8868C27.3435 64.1816 27.4824 63.4834 27.7522 62.8319C28.0221 62.1805 28.4176 61.5885 28.9162 61.0899C33.4503 56.5635 39.5952 54.0213 46.0019 54.0213C52.4086 54.0213 58.5535 56.5635 63.0875 61.0899C63.8385 61.8408 64.3499 62.7976 64.5571 63.8392C64.7643 64.8808 64.658 65.9604 64.2516 66.9416C63.8452 67.9228 63.1569 68.7614 62.2739 69.3514C61.3908 69.9414 60.3527 70.2562 59.2907 70.2562Z" fill="#626262"/>
<path d="M46.0017 83.5448C48.9672 83.5448 51.3712 81.1408 51.3712 78.1754C51.3712 75.2099 48.9672 72.806 46.0017 72.806C43.0363 72.806 40.6323 75.2099 40.6323 78.1754C40.6323 81.1408 43.0363 83.5448 46.0017 83.5448Z" fill="#626262"/>
<path d="M81.44 19.1386C78.9715 19.1366 76.5268 19.6214 74.2458 20.5651C71.9649 21.5088 69.8924 22.893 68.1469 24.6385C66.4014 26.384 65.0172 28.4565 64.0735 30.7375C63.1297 33.0184 62.645 35.4631 62.647 37.9316C62.647 38.1517 62.6524 38.3719 62.6577 38.5866C62.7862 42.2735 63.997 45.8409 66.1391 48.8444C68.2812 51.8478 71.2598 54.1544 74.7038 55.4766C78.1478 56.7989 81.9048 57.0782 85.5064 56.2799C89.1081 55.4816 92.3951 53.641 94.9579 50.9874C97.5206 48.3338 99.2457 44.9846 99.9181 41.3574C100.591 37.7301 100.18 33.9851 98.7392 30.5893C97.2978 27.1934 94.8889 24.2969 91.8127 22.2607C88.7365 20.2245 85.129 19.1387 81.44 19.1386ZM89.4243 42.0929C89.8002 42.4681 90.0562 42.9466 90.1599 43.4675C90.2635 43.9884 90.2102 44.5284 90.0066 45.019C89.803 45.5096 89.4584 45.9287 89.0163 46.2231C88.5742 46.5176 88.0547 46.6742 87.5235 46.673C87.1714 46.6747 86.8224 46.6062 86.497 46.4716C86.1716 46.337 85.8762 46.139 85.6281 45.8891L81.44 41.7009L77.2518 45.8891C76.7477 46.3911 76.0652 46.673 75.3537 46.673C74.6422 46.673 73.9597 46.3911 73.4556 45.8891C72.9528 45.3854 72.6703 44.7027 72.6703 43.991C72.6703 43.2792 72.9528 42.5966 73.4556 42.0929L77.6437 37.9047L73.4556 33.7166C72.9522 33.2132 72.6694 32.5304 72.6694 31.8185C72.6694 31.1066 72.9522 30.4238 73.4556 29.9204C73.959 29.417 74.6418 29.1342 75.3537 29.1342C76.0656 29.1342 76.7484 29.417 77.2518 29.9204L81.44 34.1086L85.6281 29.9204C86.1315 29.417 86.8143 29.1342 87.5262 29.1342C88.2381 29.1342 88.9209 29.417 89.4243 29.9204C89.9277 30.4238 90.2105 31.1066 90.2105 31.8185C90.2105 32.5304 89.9277 33.2132 89.4243 33.7166L85.2362 37.9047L89.4243 42.0929Z" fill="#626262"/>
</g>
<defs>
<clipPath id="clip0_1049_6896">
<rect width="100" height="100" fill="white" transform="translate(0.5)"/>
</clipPath>
</defs>
</svg>
