<svg width="24" height="24" viewBox="0 0 24 24" fill="none" xmlns="http://www.w3.org/2000/svg">
<path fill-rule="evenodd" clip-rule="evenodd" d="M2.25 21C2.25 20.5858 2.58579 20.25 3 20.25L21 20.25C21.4142 20.25 21.75 20.5858 21.75 21C21.75 21.4142 21.4142 21.75 21 21.75L3 21.75C2.58579 21.75 2.25 21.4142 2.25 21Z" fill="#101010"/>
<path fill-rule="evenodd" clip-rule="evenodd" d="M20.5302 8.48004C20.8231 8.18714 20.8231 7.71227 20.5302 7.41938L15.5805 2.46963C15.2876 2.17674 14.8127 2.17674 14.5198 2.46963L6.08478 10.9047C5.75659 11.2328 5.57222 11.678 5.57222 12.1421L5.57222 16.6776C5.57222 17.0918 5.90801 17.4276 6.32222 17.4276L10.8577 17.4276C11.3219 17.4276 11.767 17.2433 12.0952 16.9151L20.5302 8.48004ZM18.9392 7.94971L17.1715 9.71747L13.2824 5.82839L15.0501 4.06062L18.9392 7.94971ZM12.2217 6.88905L16.1108 10.7781L11.0345 15.8544C10.9876 15.9013 10.9241 15.9276 10.8578 15.9276L7.07222 15.9276L7.07222 12.1421C7.07222 12.0758 7.09856 12.0122 7.14544 11.9653L12.2217 6.88905Z" fill="#101010"/>
</svg>
