<svg width="183" height="29" viewBox="0 0 183 29" fill="none" xmlns="http://www.w3.org/2000/svg">
<rect width="42" height="29" fill="#F2D76E"/>
<path d="M6.61078 21H9.49078V15.48H11.6508L14.7708 21H18.0108L14.4108 15C15.0108 14.784 15.5388 14.448 16.0188 14.04C16.8588 13.344 17.6508 12.264 17.6508 10.56C17.6508 8.04 15.4908 5.88 12.6108 5.88H6.61078V21ZM9.49078 12.72V8.64H12.6108C13.8348 8.64 14.7708 9.6 14.7708 10.68C14.7708 11.76 13.8348 12.72 12.6108 12.72H9.49078ZM20.0405 21H22.9205V12.6L26.7605 21H28.6805L32.5205 12.6V21H35.4005V5.88H32.8805L27.7205 17.04L22.5605 5.88H20.0405V21Z" fill="#101010"/>
<path d="M48.7084 21H51.5884V14.64H57.9484V21H60.8284V5.88H57.9484V11.88H51.5884V5.88H48.7084V21ZM67.4228 21H70.3028V15.24L75.2228 5.88H72.1028L68.8628 12.36L65.6228 5.88H62.5028L67.4228 15.24V21ZM76.0638 21H86.9838V18.24H79.7838L86.6238 8.16V5.88H76.3038V8.64H82.9038L76.0638 18.72V21ZM89.2553 21H92.1353V12.6L95.9753 21H97.8953L101.735 12.6V21H104.615V5.88H102.095L96.9353 17.04L91.7753 5.88H89.2553V21ZM106.044 21H109.044L110.124 17.88H115.884L116.964 21H119.964L114.324 5.88H111.684L106.044 21ZM111.084 15.24L113.004 9.72L114.924 15.24H111.084ZM123.691 21H126.571V8.64H131.011V5.88H119.251V8.64H123.691V21ZM132.919 21H142.879V18.24H135.799V5.88H132.919V21ZM143.122 21H146.122L147.202 17.88H152.962L154.042 21H157.042L151.402 5.88H148.762L143.122 21ZM148.162 15.24L150.082 9.72L152.002 15.24H148.162ZM158.49 21H161.37V15.48H163.53L166.65 21H169.89L166.29 15C166.89 14.784 167.418 14.448 167.898 14.04C168.738 13.344 169.53 12.264 169.53 10.56C169.53 8.04 167.37 5.88 164.49 5.88H158.49V21ZM161.37 12.72V8.64H164.49C165.714 8.64 166.65 9.6 166.65 10.68C166.65 11.76 165.714 12.72 164.49 12.72H161.37ZM174.931 21H177.811V15.24L182.731 5.88H179.611L176.371 12.36L173.131 5.88H170.011L174.931 15.24V21Z" fill="#F2D76E"/>
</svg>
