<svg width="24" height="24" viewBox="0 0 24 24" fill="none" xmlns="http://www.w3.org/2000/svg">
<path fill-rule="evenodd" clip-rule="evenodd" d="M0.96967 11.9697C1.26256 11.6768 1.73744 11.6768 2.03033 11.9697L6 15.9393L8.46967 13.4697C8.76256 13.1768 9.23744 13.1768 9.53033 13.4697C9.82322 13.7626 9.82322 14.2374 9.53033 14.5303L6.95459 17.1061C6.42739 17.6333 5.57262 17.6333 5.04541 17.1061L0.96967 13.0303C0.676777 12.7374 0.676777 12.2626 0.96967 11.9697Z" fill="#101010"/>
<path fill-rule="evenodd" clip-rule="evenodd" d="M16.5303 6.46967C16.8232 6.76256 16.8232 7.23744 16.5303 7.53033L12.5303 11.5303C12.2374 11.8232 11.7626 11.8232 11.4697 11.5303C11.1768 11.2374 11.1768 10.7626 11.4697 10.4697L15.4697 6.46967C15.7626 6.17678 16.2374 6.17678 16.5303 6.46967Z" fill="#101010"/>
<path fill-rule="evenodd" clip-rule="evenodd" d="M22.5303 6.46967C22.8232 6.76256 22.8232 7.23744 22.5303 7.53033L12.9546 17.1061C12.4274 17.6333 11.5726 17.6333 11.0454 17.1061L6.46967 12.5303C6.17678 12.2374 6.17678 11.7626 6.46967 11.4697C6.76256 11.1768 7.23744 11.1768 7.53033 11.4697L12 15.9393L21.4697 6.46967C21.7626 6.17678 22.2374 6.17678 22.5303 6.46967Z" fill="#101010"/>
</svg>
