<svg width="24" height="24" viewBox="0 0 24 24" fill="none" xmlns="http://www.w3.org/2000/svg">
<path fill-rule="evenodd" clip-rule="evenodd" d="M16.5303 12.5303C16.8232 12.2374 16.8232 11.7626 16.5303 11.4697L13.0303 7.96967C12.7374 7.67678 12.2626 7.67678 11.9697 7.96967C11.6768 8.26256 11.6768 8.73744 11.9697 9.03033L14.1893 11.25H8C7.58579 11.25 7.25 11.5858 7.25 12C7.25 12.4142 7.58579 12.75 8 12.75H14.1893L11.9697 14.9697C11.6768 15.2626 11.6768 15.7374 11.9697 16.0303C12.2626 16.3232 12.7374 16.3232 13.0303 16.0303L16.5303 12.5303Z" fill="#101010"/>
<path fill-rule="evenodd" clip-rule="evenodd" d="M12 2.75C6.89137 2.75 2.75 6.89137 2.75 12C2.75 17.1086 6.89137 21.25 12 21.25C17.1086 21.25 21.25 17.1086 21.25 12C21.25 6.89137 17.1086 2.75 12 2.75ZM1.25 12C1.25 6.06294 6.06294 1.25 12 1.25C17.9371 1.25 22.75 6.06294 22.75 12C22.75 17.9371 17.9371 22.75 12 22.75C6.06294 22.75 1.25 17.9371 1.25 12Z" fill="#101010"/>
</svg>
