<svg width="24" height="24" viewBox="0 0 24 24" fill="none" xmlns="http://www.w3.org/2000/svg">
<path fill-rule="evenodd" clip-rule="evenodd" d="M21.5303 20.5303C21.671 20.3897 21.75 20.1989 21.75 20V6C21.75 5.64848 21.5059 5.34412 21.1627 5.26786L12.1627 3.26786C12.0555 3.24405 11.9445 3.24405 11.8373 3.26786L2.8373 5.26786C2.49415 5.34412 2.25 5.64848 2.25 6V20C2.25 20.1989 2.32902 20.3897 2.46967 20.5303C2.61032 20.671 2.80109 20.75 3 20.75H21C21.1989 20.75 21.3897 20.671 21.5303 20.5303ZM20.25 19.25H18.75V8C18.75 7.58579 18.4142 7.25 18 7.25L6 7.25C5.58579 7.25 5.25 7.58579 5.25 8V19.25H3.75V6.60163L12 4.7683L20.25 6.60163V19.25ZM6.75 19.25V16.75H17.25V19.25H6.75ZM17.25 15.25H6.75V12.75L17.25 12.75V15.25ZM17.25 11.25L6.75 11.25V8.75L17.25 8.75V11.25Z" fill="#101010"/>
</svg>
