<svg width="24" height="24" viewBox="0 0 24 24" fill="none" xmlns="http://www.w3.org/2000/svg">
<path fill-rule="evenodd" clip-rule="evenodd" d="M12 10.75C12.4142 10.75 12.75 11.0858 12.75 11.5V16.5C12.75 16.9142 12.4142 17.25 12 17.25C11.5858 17.25 11.25 16.9142 11.25 16.5L11.25 11.5C11.25 11.0858 11.5858 10.75 12 10.75Z" fill="#101010"/>
<path fill-rule="evenodd" clip-rule="evenodd" d="M12.5117 6.94132C12.8196 7.21841 12.8446 7.69263 12.5675 8.00051L12.5575 8.01162C12.2804 8.3195 11.8062 8.34446 11.4983 8.06737C11.1904 7.79027 11.1654 7.31606 11.4425 7.00817L11.4525 6.99706C11.7296 6.68918 12.2038 6.66422 12.5117 6.94132Z" fill="#101010"/>
<path fill-rule="evenodd" clip-rule="evenodd" d="M12 2.75C6.89137 2.75 2.75 6.89137 2.75 12C2.75 17.1086 6.89137 21.25 12 21.25C17.1086 21.25 21.25 17.1086 21.25 12C21.25 6.89137 17.1086 2.75 12 2.75ZM1.25 12C1.25 6.06294 6.06294 1.25 12 1.25C17.9371 1.25 22.75 6.06294 22.75 12C22.75 17.9371 17.9371 22.75 12 22.75C6.06294 22.75 1.25 17.9371 1.25 12Z" fill="#101010"/>
</svg>
