<svg width="24" height="24" viewBox="0 0 24 24" fill="none" xmlns="http://www.w3.org/2000/svg">
<path fill-rule="evenodd" clip-rule="evenodd" d="M8.64098 8.64124C8.93388 8.34835 9.40875 8.34835 9.70164 8.64124L11.9997 10.9393L14.2978 8.64124C14.5907 8.34835 15.0656 8.34835 15.3585 8.64124C15.6514 8.93414 15.6514 9.40901 15.3585 9.7019L13.0604 12L15.3585 14.2981C15.6514 14.591 15.6514 15.0659 15.3585 15.3588C15.0656 15.6517 14.5907 15.6517 14.2978 15.3588L11.9997 13.0607L9.70164 15.3588C9.40875 15.6517 8.93388 15.6517 8.64098 15.3588C8.34809 15.0659 8.34809 14.591 8.64098 14.2981L10.9391 12L8.64098 9.7019C8.34809 9.40901 8.34809 8.93414 8.64098 8.64124Z" fill="#101010"/>
<path fill-rule="evenodd" clip-rule="evenodd" d="M12 2.75C6.89137 2.75 2.75 6.89137 2.75 12C2.75 17.1086 6.89137 21.25 12 21.25C17.1086 21.25 21.25 17.1086 21.25 12C21.25 6.89137 17.1086 2.75 12 2.75ZM1.25 12C1.25 6.06294 6.06294 1.25 12 1.25C17.9371 1.25 22.75 6.06294 22.75 12C22.75 17.9371 17.9371 22.75 12 22.75C6.06294 22.75 1.25 17.9371 1.25 12Z" fill="#101010"/>
</svg>
