<svg width="62" height="62" viewBox="0 0 62 62" fill="none" xmlns="http://www.w3.org/2000/svg">
<rect width="62" height="62" rx="31" fill="#CE2A18"/>
<path fill-rule="evenodd" clip-rule="evenodd" d="M42.5173 25.7035C43.0953 25.8052 43.4814 26.3561 43.3798 26.934L40.5535 43.0079C40.5535 43.0079 40.5535 43.0079 40.5535 43.0079C40.2261 44.8707 38.608 46.2292 36.7167 46.2292H25.2834C23.392 46.2292 21.7739 44.8707 21.4464 43.0079L18.6202 26.934C18.5186 26.356 18.9048 25.8052 19.4827 25.7035C20.0606 25.6019 20.6115 25.9881 20.7131 26.566L23.5393 42.6399C23.6882 43.4867 24.4237 44.1042 25.2834 44.1042H36.7167C37.5763 44.1042 38.3118 43.4867 38.4606 42.64L38.4606 42.6399L41.2869 26.566C41.3885 25.9881 41.9394 25.6019 42.5173 25.7035Z" fill="white"/>
<path fill-rule="evenodd" clip-rule="evenodd" d="M29.0521 17.8958C28.0741 17.8958 27.2812 18.6886 27.2812 19.6666V21.4375H34.7187V19.6666C34.7187 18.6886 33.926 17.8958 32.9479 17.8958H29.0521ZM25.1562 21.4375V19.6666C25.1562 17.515 26.9005 15.7708 29.0521 15.7708H32.9479C35.0996 15.7708 36.8437 17.515 36.8437 19.6666V21.4375H43.75C44.3368 21.4375 44.8125 21.9132 44.8125 22.5C44.8125 23.0868 44.3368 23.5625 43.75 23.5625H18.25C17.6632 23.5625 17.1875 23.0868 17.1875 22.5C17.1875 21.9132 17.6632 21.4375 18.25 21.4375H25.1562Z" fill="white"/>
</svg>
