<svg width="52" height="52" viewBox="0 0 52 52" fill="none" xmlns="http://www.w3.org/2000/svg">
<path fill-rule="evenodd" clip-rule="evenodd" d="M14.9697 24.9697C15.2626 24.6768 15.7374 24.6768 16.0303 24.9697L20 28.9393L22.4697 26.4697C22.7626 26.1768 23.2374 26.1768 23.5303 26.4697C23.8232 26.7626 23.8232 27.2374 23.5303 27.5303L20.9546 30.1061C20.4274 30.6333 19.5726 30.6333 19.0454 30.1061L14.9697 26.0303C14.6768 25.7374 14.6768 25.2626 14.9697 24.9697Z" fill="#F2D76E"/>
<path fill-rule="evenodd" clip-rule="evenodd" d="M30.5303 19.4697C30.8232 19.7626 30.8232 20.2374 30.5303 20.5303L26.5303 24.5303C26.2374 24.8232 25.7626 24.8232 25.4697 24.5303C25.1768 24.2374 25.1768 23.7626 25.4697 23.4697L29.4697 19.4697C29.7626 19.1768 30.2374 19.1768 30.5303 19.4697Z" fill="#F2D76E"/>
<path fill-rule="evenodd" clip-rule="evenodd" d="M36.5303 19.4697C36.8232 19.7626 36.8232 20.2374 36.5303 20.5303L26.9546 30.1061C26.4274 30.6333 25.5726 30.6333 25.0454 30.1061L20.4697 25.5303C20.1768 25.2374 20.1768 24.7626 20.4697 24.4697C20.7626 24.1768 21.2374 24.1768 21.5303 24.4697L26 28.9393L35.4697 19.4697C35.7626 19.1768 36.2374 19.1768 36.5303 19.4697Z" fill="#F2D76E"/>
<circle cx="26" cy="26" r="25" stroke="#626262" stroke-width="2"/>
<path d="M1 26C1 19.3696 3.63392 13.0107 8.32233 8.32233C13.0107 3.63392 19.3696 1 26 1C32.6304 1 38.9893 3.63392 43.6777 8.32233C48.3661 13.0107 51 19.3696 51 26C51 32.6304 48.3661 38.9893 43.6777 43.6777C38.9893 48.3661 32.6304 51 26 51C19.3696 51 13.0107 48.3661 8.32233 43.6777C3.63392 38.9893 1 32.6304 1 26L1 26Z" stroke="#F2D76E" stroke-width="2"/>
</svg>
