<svg width="313" height="165" viewBox="0 0 313 165" fill="none" xmlns="http://www.w3.org/2000/svg">
<g clip-path="url(#clip0_1001_54)">
<path d="M309 0H4C1.79086 0 0 1.79086 0 4V161C0 163.209 1.79086 165 4 165H309C311.209 165 313 163.209 313 161V4C313 1.79086 311.209 0 309 0Z" fill="#626262"/>
<path d="M166.52 87.3198L163.39 79.9998C162.82 78.6598 161.97 77.8998 161 77.8498C160.04 77.7998 159.11 78.4698 158.4 79.7498L156.5 83.1598C156.1 83.8798 155.53 84.3098 154.91 84.3598C154.28 84.4198 153.65 84.0898 153.14 83.4398L152.92 83.1598C152.21 82.2698 151.33 81.8398 150.43 81.9298C149.53 82.0198 148.76 82.6398 148.25 83.6498L146.52 87.0998C145.9 88.3498 145.96 89.7998 146.69 90.9798C147.42 92.1598 148.69 92.8698 150.08 92.8698H162.84C164.18 92.8698 165.43 92.1998 166.17 91.0798C166.93 89.9598 167.05 88.5498 166.52 87.3198Z" fill="#292D32"/>
<path d="M151.47 78.8801C153.337 78.8801 154.85 77.3668 154.85 75.5001C154.85 73.6334 153.337 72.1201 151.47 72.1201C149.603 72.1201 148.09 73.6334 148.09 75.5001C148.09 77.3668 149.603 78.8801 151.47 78.8801Z" fill="#292D32"/>
</g>
<defs>
<clipPath id="clip0_1001_54">
<rect width="313" height="165" fill="white"/>
</clipPath>
</defs>
</svg>
