<svg width="52" height="52" viewBox="0 0 52 52" fill="none" xmlns="http://www.w3.org/2000/svg">
<path fill-rule="evenodd" clip-rule="evenodd" d="M22.641 21.6412C22.9339 21.3483 23.4088 21.3483 23.7016 21.6412L25.9997 23.9393L28.2978 21.6412C28.5907 21.3483 29.0656 21.3483 29.3585 21.6412C29.6514 21.9341 29.6514 22.409 29.3585 22.7019L27.0604 25L29.3585 27.2981C29.6514 27.591 29.6514 28.0659 29.3585 28.3588C29.0656 28.6517 28.5907 28.6517 28.2978 28.3588L25.9997 26.0607L23.7016 28.3588C23.4088 28.6517 22.9339 28.6517 22.641 28.3588C22.3481 28.0659 22.3481 27.591 22.641 27.2981L24.9391 25L22.641 22.7019C22.3481 22.409 22.3481 21.9341 22.641 21.6412Z" fill="#CE2A18"/>
<path fill-rule="evenodd" clip-rule="evenodd" d="M26 15.75C20.8914 15.75 16.75 19.8914 16.75 25C16.75 30.1086 20.8914 34.25 26 34.25C31.1086 34.25 35.25 30.1086 35.25 25C35.25 19.8914 31.1086 15.75 26 15.75ZM15.25 25C15.25 19.0629 20.0629 14.25 26 14.25C31.9371 14.25 36.75 19.0629 36.75 25C36.75 30.9371 31.9371 35.75 26 35.75C20.0629 35.75 15.25 30.9371 15.25 25Z" fill="#CE2A18"/>
<circle cx="26" cy="26" r="25" stroke="#626262" stroke-width="2"/>
<path d="M1 26C1 19.3696 3.63392 13.0107 8.32233 8.32233C13.0107 3.63392 19.3696 1 26 1C32.6304 1 38.9893 3.63392 43.6777 8.32233C48.3661 13.0107 51 19.3696 51 26C51 32.6304 48.3661 38.9893 43.6777 43.6777C38.9893 48.3661 32.6304 51 26 51C19.3696 51 13.0107 48.3661 8.32233 43.6777C3.63392 38.9893 1 32.6304 1 26L1 26Z" stroke="#CE2A18" stroke-width="2"/>
</svg>
