<svg width="32" height="32" viewBox="0 0 32 32" fill="none" xmlns="http://www.w3.org/2000/svg">
<rect width="32" height="32" rx="4" fill="#F2D76E"/>
<path d="M20.6999 23.73H11.2999C10.5599 23.73 9.80994 23.2 9.55994 22.51L5.41993 10.92C4.90993 9.45998 5.27993 8.78998 5.67993 8.48998C6.07993 8.18998 6.82994 8.00998 8.08994 8.90998L11.9899 11.7C12.1099 11.77 12.2199 11.8 12.2999 11.78C12.3899 11.75 12.4599 11.67 12.5099 11.53L14.2699 6.83998C14.7999 5.43998 15.5799 5.22998 15.9999 5.22998C16.4199 5.22998 17.1999 5.43998 17.7299 6.83998L19.4899 11.53C19.5399 11.66 19.6099 11.75 19.6999 11.78C19.7899 11.81 19.8999 11.78 20.0099 11.69L23.6699 9.07998C25.0099 8.11998 25.7899 8.30998 26.2199 8.61998C26.6399 8.93998 27.0299 9.64998 26.4799 11.2L22.4399 22.51C22.1899 23.2 21.4399 23.73 20.6999 23.73ZM6.67994 9.80998C6.69994 9.94998 6.73993 10.15 6.83993 10.41L10.9799 22C11.0199 22.1 11.1999 22.23 11.2999 22.23H20.6999C20.8099 22.23 20.9899 22.1 21.0199 22L25.0599 10.7C25.1999 10.32 25.2399 10.06 25.2499 9.90998C25.0999 9.95998 24.8699 10.07 24.5399 10.31L20.8799 12.92C20.3799 13.27 19.7899 13.38 19.2599 13.22C18.7299 13.06 18.2999 12.64 18.0799 12.07L16.3199 7.37998C16.1899 7.02998 16.0699 6.85998 15.9999 6.77998C15.9299 6.85998 15.8099 7.02998 15.6799 7.36998L13.9199 12.06C13.7099 12.63 13.2799 13.05 12.7399 13.21C12.2099 13.37 11.6099 13.26 11.1199 12.91L7.21994 10.12C6.98994 9.95998 6.80994 9.85998 6.67994 9.80998Z" fill="#101010"/>
<path d="M21.5 26.75H10.5C10.09 26.75 9.75 26.41 9.75 26C9.75 25.59 10.09 25.25 10.5 25.25H21.5C21.91 25.25 22.25 25.59 22.25 26C22.25 26.41 21.91 26.75 21.5 26.75Z" fill="#101010"/>
<path d="M18.5 18.75H13.5C13.09 18.75 12.75 18.41 12.75 18C12.75 17.59 13.09 17.25 13.5 17.25H18.5C18.91 17.25 19.25 17.59 19.25 18C19.25 18.41 18.91 18.75 18.5 18.75Z" fill="#101010"/>
</svg>
